Coordinates
version=1
nRows=16
nColumns=40
inDegrees=yes

Units are S.I. units (second, meters, Newtons, ...)
Angles are in degrees.

endheader
time	pelvis_tilt	pelvis_list	pelvis_rotation	pelvis_tx	pelvis_ty	pelvis_tz	hip_flexion_r	hip_adduction_r	hip_rotation_r	knee_angle_r	knee_angle_r_beta	ankle_angle_r	subtalar_angle_r	mtp_angle_r	hip_flexion_l	hip_adduction_l	hip_rotation_l	knee_angle_l	knee_angle_l_beta	ankle_angle_l	subtalar_angle_l	mtp_angle_l	lumbar_extension	lumbar_bending	lumbar_rotation	arm_flex_r	arm_add_r	arm_rot_r	elbow_flex_r	pro_sup_r	wrist_flex_r	wrist_dev_r	arm_flex_l	arm_add_l	arm_rot_l	elbow_flex_l	pro_sup_l	wrist_flex_l	wrist_dev_l
     32.52664286	     -6.03163218	     -7.12477149	     -1.56645747	      0.97309630	      0.91193646	      0.50342838	     -1.76158826	      5.07897180	    -16.57044848	     11.15524905	     11.15524905	     18.58153546	      7.48977830	     -2.82973876	     34.66879102	    -11.38540174	     -3.36336281	     19.97742553	     19.97742553	      2.44237358	     -9.69850059	      8.76721074	    -11.17097226	      7.60733072	      4.02506119	     40.91637635	    -13.93620211	      9.39148190	     92.71222973	     43.77749712	      0.00000000	      0.00000000	    -17.48369817	     -7.94804387	     -6.79457502	     31.42981553	     46.33845014	      0.00000000	      0.00000000
     32.53828571	     -6.23329495	     -6.95270039	     -1.88547685	      0.97513140	      0.91045092	      0.50156075	     -1.93769481	      4.62390637	    -16.05581636	     11.78045269	     11.78045269	     19.12625077	      7.17689503	     -2.64118623	     34.48212748	    -11.15699435	     -3.47376937	     20.62281998	     20.62281998	      1.37567345	    -11.12320356	      7.81729769	    -10.82623404	      7.39901785	      3.82298026	     41.21356292	    -13.32902721	      9.21015323	     95.15052297	     43.73543307	      0.00000000	      0.00000000	    -17.79755142	     -7.96664156	     -6.42043058	     31.39464630	     46.27630210	      0.00000000	      0.00000000
     32.54992857	     -6.25308838	     -6.73296158	     -2.18359395	      0.97733823	      0.90936465	      0.49955322	     -2.24914846	      4.08529658	    -15.49739951	     12.53807765	     12.53807765	     19.80429569	      6.76765291	     -2.01987125	     34.06507392	    -10.86489305	     -3.45830650	     21.23692179	     21.23692179	     -0.09508883	    -12.82510494	      5.47806941	    -10.70235157	      7.13535782	      4.46963012	     40.87515906	    -13.59888200	      8.34849151	     98.40563202	     43.73693517	      0.00000000	      0.00000000	    -17.59344245	     -8.24787171	     -5.46704349	     31.58846927	     46.13797478	      0.00000000	      0.00000000
     32.56157143	     -6.28710732	     -6.53397552	     -2.41909539	      0.97941679	      0.90846221	      0.49739105	     -2.43448218	      3.52564085	    -15.10158143	     13.45143815	     13.45143815	     20.16387860	      6.41207391	     -2.16303078	     33.97249733	    -10.64909577	     -3.51408082	     22.44747745	     22.44747745	     -0.27820946	    -13.68195058	      5.09298157	    -10.51933148	      6.92578594	      4.02712022	     41.26526956	    -12.80462106	      8.30440492	     99.80916067	     43.71252718	      0.00000000	      0.00000000	    -17.65433687	     -8.22237829	     -5.19135310	     31.38351735	     46.09795123	      0.00000000	      0.00000000
     32.57321429	     -6.34470064	     -6.25798757	     -2.62261107	      0.98131680	      0.90781419	      0.49505433	     -2.35453598	      2.84079422	    -14.59216873	     14.76757400	     14.76757400	     20.47746462	      5.69288860	     -2.38660931	     33.87885112	    -10.30401023	     -3.43934678	     23.57389927	     23.57389927	     -0.30835369	    -14.62546749	      4.73788900	    -10.35511903	      6.62567592	      3.74805538	     41.24810160	    -12.27479540	      8.11188191	    101.74487451	     43.68078048	      0.00000000	      0.00000000	    -17.48865622	     -8.25443205	     -4.88172769	     31.29102034	     46.05678476	      0.00000000	      0.00000000
     32.58485714	     -6.28690034	     -5.99905638	     -2.79602813	      0.98321117	      0.90774330	      0.49258434	     -2.31335429	      2.17167802	    -13.99358049	     16.19064472	     16.19064472	     20.50052592	      4.71337013	     -2.86056794	     33.66031620	     -9.95007044	     -3.30958388	     24.70255593	     24.70255593	      0.06178576	    -15.40506089	      4.67814175	    -10.37954436	      6.33651465	      4.28399906	     40.48195105	    -12.56308729	      7.09556955	    104.75175986	     43.69091076	      0.00000000	      0.00000000	    -16.67459274	     -8.52057685	     -3.96977711	     31.07102728	     45.94405719	      0.00000000	      0.00000000
     32.59650000	     -6.18922632	     -5.74594999	     -2.92277689	      0.98499044	      0.90800413	      0.48994398	     -2.09804400	      1.41366253	    -13.67199585	     18.01107351	     18.01107351	     20.48227462	      3.98105292	     -3.36047496	     33.38054436	     -9.60267523	     -3.28657551	     25.77056372	     25.77056372	      0.67339385	    -15.88338890	      4.46073991	    -10.38552053	      6.08109451	      3.84449771	     40.45011465	    -12.01466140	      7.07075590	    105.84206988	     43.67196260	      0.00000000	      0.00000000	    -16.28736619	     -8.52653028	     -3.74975812	     30.98313152	     45.92043700	      0.00000000	      0.00000000
     32.60814286	     -6.19351396	     -5.45044423	     -3.03163482	      0.98650603	      0.90855623	      0.48714772	     -1.55636242	      0.64521136	    -13.06411840	     20.07344689	     20.07344689	     19.69268399	      2.41803966	     -5.32997739	     33.18653550	     -9.15207470	     -3.16923352	     26.78903322	     26.78903322	      1.94900199	    -16.13297923	      5.67764351	    -10.38825140	      5.81604007	      4.29596725	     39.33021150	    -12.32845389	      6.08283782	    108.61093321	     43.69874118	      0.00000000	      0.00000000	    -15.09563565	     -8.75524210	     -2.76100906	     30.53184202	     45.81024040	      0.00000000	      0.00000000
     32.61978571	     -6.11094666	     -5.17521464	     -3.12279994	      0.98793993	      0.90948170	      0.48421177	     -0.83779822	     -0.23952933	    -12.80649178	     22.68001920	     22.68001920	     19.19160453	      1.36971241	     -6.11573027	     32.72396863	     -8.72215388	     -3.22315666	     27.44497416	     27.44497416	      2.77455846	    -16.37568793	      5.49038817	    -10.42807243	      5.58787781	      3.85024747	     39.01906383	    -11.94333494	      6.11469768	    109.40726472	     43.68662418	      0.00000000	      0.00000000	    -14.46380066	     -8.76221366	     -2.57374016	     30.56006994	     45.79638926	      0.00000000	      0.00000000
     32.63142857	     -6.08916786	     -4.94818099	     -3.19972991	      0.98916740	      0.91065095	      0.48131223	      0.02675736	     -0.98041475	    -12.28912085	     25.19189995	     25.19189995	     17.16326643	     -0.83163166	    -10.07952645	     32.29377743	     -8.30615194	     -3.20414363	     28.03711064	     28.03711064	      4.19857035	    -16.39449993	      6.77945754	    -10.45892043	      5.41629056	      4.33554575	     37.67236215	    -12.39240585	      5.12940990	    111.71088459	     43.74653380	      0.00000000	      0.00000000	    -13.01934432	     -9.01079393	     -1.57421520	     30.09933888	     45.70091430	      0.00000000	      0.00000000
     32.64307143	     -6.08535938	     -4.72421689	     -3.27251666	      0.99021614	      0.91195958	      0.47833440	      1.27313293	     -1.84290816	    -12.00040658	     28.44011772	     28.44011772	     15.94327602	     -2.43177607	    -10.99404150	     31.69033026	     -7.89292148	     -3.32386114	     28.21977305	     28.21977305	      4.97098055	    -16.48558676	      6.57304010	    -10.43018708	      5.27668273	      3.91220534	     36.98210257	    -12.23079953	      5.24376576	    112.24916384	     43.74166192	      0.00000000	      0.00000000	    -12.22778101	     -9.00054383	     -1.43288817	     30.30761283	     45.69853630	      0.00000000	      0.00000000
     32.65471429	     -5.95072154	     -4.46304610	     -3.38257239	      0.99115610	      0.91354231	      0.47544457	      2.58432204	     -2.78546444	    -11.70658125	     31.96032258	     31.96032258	     14.39809856	     -4.08189939	    -11.75602636	     30.87395625	     -7.46782311	     -3.59950161	     28.28514407	     28.28514407	      5.73570578	    -16.50787976	      6.36010296	    -10.57568986	      5.07544043	      3.61289702	     36.22121830	    -12.15195901	      5.33489939	    112.68146110	     43.73213885	      0.00000000	      0.00000000	    -11.27816047	     -9.08307953	     -1.39143824	     30.60522775	     45.71082505	      0.00000000	      0.00000000
     32.66635714	     -6.02528849	     -4.40959422	     -3.45013180	      0.99181949	      0.91500086	      0.47280563	      4.11879776	     -3.24889767	    -11.00382489	     35.09330207	     35.09330207	     10.65438635	     -8.00741683	    -16.65459919	     30.22389961	     -7.22687689	     -3.70138676	     28.17600961	     28.17600961	      6.60085451	    -16.39522442	      6.69419293	    -10.54893171	      5.09405253	      4.25451955	     34.32313704	    -13.01679907	      4.28572290	    114.85713369	     43.77094689	      0.00000000	      0.00000000	     -9.71907455	     -9.21595380	     -1.02910657	     30.80912692	     45.71016195	      0.00000000	      0.00000000
     32.67800000	     -5.97595010	     -4.16456112	     -3.54079958	      0.99233438	      0.91648680	      0.47011672	      5.90266990	     -4.21335671	    -10.85625164	     39.04638534	     39.04638534	      8.48411319	     -9.75222774	    -16.77908966	     29.37498257	     -6.80950203	     -4.02072784	     27.93390792	     27.93390792	      7.17333767	    -16.31186321	      6.47190662	    -10.59113319	      4.90757826	      3.82076132	     33.40513990	    -12.95892818	      4.49502638	    114.75541121	     43.77223145	      0.00000000	      0.00000000	     -8.72067804	     -9.33045027	     -0.99688557	     31.17156457	     45.72456887	      0.00000000	      0.00000000
     32.68964286	     -6.00188989	     -4.03689180	     -3.63515965	      0.99268794	      0.91785832	      0.46768642	      7.87273199	     -4.91264670	    -10.49443886	     42.95783361	     42.95783361	      5.87292107	    -12.07828532	    -16.54841915	     28.56578425	     -6.50623833	     -4.22276553	     27.58569007	     27.58569007	      7.68143460	    -16.25568876	      6.27212362	    -10.56548178	      4.81638950	      3.48419293	     32.22517098	    -13.14513658	      4.62923392	    114.73104429	     43.77292106	      0.00000000	      0.00000000	     -7.68067619	     -9.47363306	     -1.02093098	     31.69949163	     45.74766276	      0.00000000	      0.00000000
     32.70128571	     -6.05379895	     -3.92399198	     -3.69393545	      0.99274637	      0.91912639	      0.46535028	      9.99918160	     -5.46625068	     -9.93509389	     46.84138665	     46.84138665	      3.00231033	    -14.67323756	    -15.84389813	     27.81572383	     -6.21298823	     -4.42162655	     27.22497949	     27.22497949	      8.06522395	    -16.16097172	      6.07881710	    -10.54114274	      4.78603619	      3.31014838	     30.81939060	    -13.51950263	      4.66819059	    114.71422486	     43.77729025	      0.00000000	      0.00000000	     -6.59002421	     -9.66273755	     -1.09370318	     32.42044238	     45.77891431	      0.00000000	      0.00000000
